<?xml version="1.0" standalone="no"?><!DOCTYPE svg PUBLIC "-//W3C//DTD SVG 1.1//EN" "http://www.w3.org/Graphics/SVG/1.1/DTD/svg11.dtd"><svg t="1607591350189" class="icon" viewBox="0 0 1024 1024" version="1.1" xmlns="http://www.w3.org/2000/svg" p-id="651" xmlns:xlink="http://www.w3.org/1999/xlink" width="200" height="200"><defs><style type="text/css"></style></defs><path d="M128.025 384.337h64.012v511.349h-64.012zM256.114 383.997h63.246v512.015h-63.246z" fill="#000000" p-id="652"></path><path d="M128.076 383.997h191.028v63.919H128.076z" fill="#000000" p-id="653"></path><path d="M626.9 714.153L446.112 894.94l-45.216-45.217 180.787-180.787z" fill="#000000" p-id="654"></path><path d="M624.135 850.151l-45.197 45.197-181.62-181.62 45.197-45.198z" fill="#000000" p-id="655"></path><path d="M768.149 895.639h-64.012l-0.053-511.884h64.012zM896.174 895.639h-64.012V383.79h63.879z" fill="#000000" p-id="656"></path><path d="M896.174 448.209H704.146l-0.134-64.419h192.029z" fill="#000000" p-id="657"></path><path d="M384.522 127.99h64.012v511.349h-64.012zM576.559 127.99h63.246v512.015h-63.246z" fill="#000000" p-id="658"></path><path d="M384.522 127.99H639.55v63.919H384.522z" fill="#000000" p-id="659"></path></svg>